<svg width="32" height="32" viewBox="0 0 32 32" fill="none" xmlns="http://www.w3.org/2000/svg">
<path d="M22.4797 24.9715L16.8888 21.8745C18.9667 20.2397 19.531 17.0268 19.531 15.2255V11.4758C19.531 8.99292 16.2321 6.22765 12.9184 6.22765C9.60571 6.22765 6.21927 8.99337 6.21927 11.4758V15.2255C6.21927 16.8634 6.91233 20.1771 9.01163 21.8603L3.27636 24.9714C3.27636 24.9714 1.77783 25.6392 1.77783 26.4717V28.722C1.77783 29.55 2.45003 30.2223 3.27636 30.2223H22.4797C23.3068 30.2223 23.9791 29.55 23.9791 28.722V26.4718C23.9791 25.5891 22.4796 24.9715 22.4796 24.9715L22.4797 24.9715ZM22.2031 28.4463H3.55392V26.8585C3.68135 26.7658 3.85939 26.6583 3.9997 26.5939C4.04141 26.5748 4.08315 26.5548 4.12266 26.5322L9.85835 23.4215C10.3814 23.1377 10.7282 22.6116 10.781 22.0193C10.8338 21.427 10.5865 20.8467 10.123 20.4746C8.63378 19.2807 7.99574 16.6361 7.99574 15.2255V11.4759C7.99574 10.2003 10.4005 8.00376 12.9189 8.00376C15.4839 8.00376 17.7555 10.1701 17.7555 11.4759V15.2255C17.7555 16.6166 17.3234 19.2727 15.7912 20.4781C15.5602 20.66 15.3779 20.8963 15.2606 21.1659C15.1433 21.4354 15.0946 21.7299 15.1189 22.0228C15.1437 22.3157 15.2406 22.5978 15.4009 22.844C15.5613 23.0903 15.7802 23.2929 16.038 23.4339L21.629 26.5309C21.6783 26.5579 21.7409 26.5872 21.7929 26.6099C21.9238 26.6654 22.085 26.7582 22.2031 26.8399V28.4463ZM28.6949 20.5496L23.0209 17.4527C25.0989 15.8178 25.7467 12.605 25.7467 10.8036V7.05397C25.7467 4.57108 22.3647 1.77783 19.0511 1.77783C16.8976 1.77783 14.6958 2.94868 13.4144 4.44812C14.1453 4.49338 14.9511 4.4943 15.6473 4.7163C16.5828 3.98768 17.7666 3.55433 19.0511 3.55433C21.6161 3.55433 23.9707 5.74815 23.9707 7.05444V10.8041C23.9707 12.1951 23.4556 14.8512 21.9234 16.0567C21.6924 16.2386 21.5101 16.4748 21.3928 16.7444C21.2755 17.014 21.2268 17.3084 21.2511 17.6014C21.2759 17.8942 21.3728 18.1763 21.5331 18.4226C21.6935 18.6688 21.9124 18.8715 22.1702 19.0124L27.8442 22.1094C27.8935 22.1365 27.9561 22.1658 28.0081 22.1884C28.139 22.2439 28.3002 22.3367 28.4183 22.4184V23.9978H24.8334C25.3746 24.4062 25.5385 24.9906 25.7485 25.7738H28.6954C29.5225 25.7738 30.1947 25.1016 30.1947 24.2735V22.0508C30.1943 21.1672 28.6949 20.5496 28.6949 20.5496L28.6949 20.5496Z" fill="white"/>
</svg>
