<svg width="25" height="24" viewBox="0 0 25 24" fill="none" xmlns="http://www.w3.org/2000/svg">
<g id="Icon">
<path id="Vector" d="M11.2001 13.8L9.0501 11.65C8.86676 11.4667 8.63343 11.375 8.3501 11.375C8.06676 11.375 7.83343 11.4667 7.6501 11.65C7.46676 11.8333 7.3751 12.0667 7.3751 12.35C7.3751 12.6333 7.46676 12.8667 7.6501 13.05L10.5001 15.9C10.7001 16.1 10.9334 16.2 11.2001 16.2C11.4668 16.2 11.7001 16.1 11.9001 15.9L17.5501 10.25C17.7334 10.0667 17.8251 9.83333 17.8251 9.55C17.8251 9.26667 17.7334 9.03333 17.5501 8.85C17.3668 8.66667 17.1334 8.575 16.8501 8.575C16.5668 8.575 16.3334 8.66667 16.1501 8.85L11.2001 13.8ZM12.6001 22C11.2168 22 9.91676 21.7373 8.7001 21.212C7.48343 20.6867 6.4251 19.9743 5.5251 19.075C4.6251 18.175 3.91276 17.1167 3.3881 15.9C2.86343 14.6833 2.60076 13.3833 2.6001 12C2.6001 10.6167 2.86276 9.31667 3.3881 8.1C3.91343 6.88333 4.62576 5.825 5.5251 4.925C6.4251 4.025 7.48343 3.31267 8.7001 2.788C9.91676 2.26333 11.2168 2.00067 12.6001 2C13.9834 2 15.2834 2.26267 16.5001 2.788C17.7168 3.31333 18.7751 4.02567 19.6751 4.925C20.5751 5.825 21.2878 6.88333 21.8131 8.1C22.3384 9.31667 22.6008 10.6167 22.6001 12C22.6001 13.3833 22.3374 14.6833 21.8121 15.9C21.2868 17.1167 20.5744 18.175 19.6751 19.075C18.7751 19.975 17.7168 20.6877 16.5001 21.213C15.2834 21.7383 13.9834 22.0007 12.6001 22Z" fill="#1DB74E"/>
</g>
</svg>
