<svg width="24" height="24" viewBox="0 0 24 24" fill="none" xmlns="http://www.w3.org/2000/svg">
<path d="M1.79589 7.61725L11.7021 13.0119C11.8 13.0652 11.9098 13.0932 12.0213 13.0933C12.1319 13.0932 12.2407 13.0657 12.3379 13.0132L22.3485 7.61858C22.5667 7.50117 22.7024 7.27195 22.6991 7.02374C22.6975 6.90191 22.6626 6.78284 22.5983 6.67936C22.534 6.57588 22.4427 6.49193 22.3341 6.43657L12.4273 1.4056C12.2385 1.30986 12.0156 1.30919 11.8251 1.40427L1.81559 6.43523C1.59407 6.54664 1.45195 6.77219 1.44794 7.0204C1.44394 7.26861 1.57839 7.49881 1.79589 7.61725ZM12.1237 2.74806L20.5926 7.04905L12.0233 11.667L3.55406 7.05506L12.1237 2.74806ZM22.2196 11.3394L20.2393 10.3338L18.8097 11.1048L20.4778 11.9519L11.9088 16.5695L3.43927 11.9576L5.2181 11.0635L3.79255 10.2868L1.70076 11.3377C1.47924 11.4491 1.33712 11.6746 1.3331 11.9229C1.32907 12.1711 1.46354 12.4013 1.68106 12.5197L11.5872 17.9143C11.6852 17.9676 11.7949 17.9956 11.9065 17.9957C12.017 17.9957 12.1258 17.9682 12.2231 17.9156L22.2336 12.521C22.4518 12.4036 22.5876 12.1744 22.5842 11.9262C22.5828 11.8044 22.5481 11.6854 22.4838 11.5819C22.4195 11.4785 22.3281 11.3946 22.2196 11.3394ZM22.2198 16.01L20.3439 15.0879L18.9143 15.8589L20.4783 16.6225L11.909 21.2402L3.43946 16.6282L5.0932 15.8802L3.66765 15.1036L1.70097 16.0087C1.47941 16.1201 1.33729 16.3456 1.33328 16.5939C1.32928 16.8421 1.46371 17.0723 1.68123 17.1907L11.5874 22.5853C11.6853 22.6386 11.7951 22.6666 11.9066 22.6667C12.0172 22.6667 12.126 22.6391 12.2232 22.5866L22.2338 17.192C22.452 17.0746 22.5878 16.8454 22.5844 16.5972C22.583 16.4754 22.5483 16.3562 22.484 16.2527C22.4198 16.1492 22.3284 16.0653 22.2198 16.01Z" fill="#60625D"/>
</svg>
