<svg width="30" height="30" viewBox="0 0 30 30" fill="none" xmlns="http://www.w3.org/2000/svg">
<path d="M11.4001 22.8H18.6001M8.5201 3H21.4801C22.1522 3 22.4882 3 22.7449 3.13079C22.9707 3.24584 23.1543 3.42942 23.2693 3.65521C23.4001 3.91191 23.4001 4.24794 23.4001 4.92V7.40942C23.4001 7.99644 23.4001 8.28995 23.3338 8.56616C23.275 8.81104 23.178 9.04515 23.0464 9.25988C22.898 9.50208 22.6905 9.70963 22.2754 10.1247L18.7577 13.6424C18.2825 14.1176 18.0449 14.3552 17.9559 14.6292C17.8776 14.8702 17.8776 15.1298 17.9559 15.3708C18.0449 15.6448 18.2825 15.8824 18.7577 16.3576L22.2754 19.8753C22.6905 20.2904 22.898 20.4979 23.0464 20.7401C23.178 20.9549 23.275 21.189 23.3338 21.4338C23.4001 21.7101 23.4001 22.0036 23.4001 22.5906V25.08C23.4001 25.7521 23.4001 26.0881 23.2693 26.3448C23.1543 26.5706 22.9707 26.7542 22.7449 26.8692C22.4882 27 22.1522 27 21.4801 27H8.5201C7.84803 27 7.512 27 7.25531 26.8692C7.02951 26.7542 6.84594 26.5706 6.73089 26.3448C6.6001 26.0881 6.6001 25.7521 6.6001 25.08V22.5906C6.6001 22.0036 6.6001 21.7101 6.66641 21.4338C6.7252 21.189 6.82217 20.9549 6.95376 20.7401C7.10218 20.4979 7.30972 20.2904 7.72481 19.8753L11.2425 16.3576C11.7177 15.8824 11.9553 15.6448 12.0443 15.3708C12.1226 15.1298 12.1226 14.8702 12.0443 14.6292C11.9553 14.3552 11.7177 14.1176 11.2425 13.6424L7.72481 10.1247C7.30973 9.70963 7.10218 9.50208 6.95376 9.25988C6.82217 9.04515 6.7252 8.81104 6.66641 8.56616C6.6001 8.28995 6.6001 7.99644 6.6001 7.40942V4.92C6.6001 4.24794 6.6001 3.91191 6.73089 3.65521C6.84594 3.42942 7.02951 3.24584 7.25531 3.13079C7.512 3 7.84803 3 8.5201 3Z" stroke="white" stroke-width="2" stroke-linecap="round" stroke-linejoin="round"/>
</svg>
